<?xml version="1.0" encoding="UTF-8"?>
<!DOCTYPE svg
PUBLIC "-//W3C//DTD SVG 1.1//EN"
       "http://www.w3.org/Graphics/SVG/1.1/DTD/svg11.dtd">
<svg viewBox="95 75 648 565" width="553px" height="490px" xmlns="http://www.w3.org/2000/svg" version="1.1">
   <line x1="540" y1="380" x2="530" y2="380" style="stroke:#333;stroke-width:1;"/>
   <line x1="243" y1="300" x2="233" y2="300" style="stroke:#333;stroke-width:1;"/>
   <line x1="530" y1="380" x2="243" y2="300" style="stroke:#333;stroke-width:1;"/>
   <line x1="532.5" y1="380" x2="536.03553390593" y2="383.53553390593" style="stroke:#333;stroke-width:2;"/>
   <line x1="532.5" y1="380" x2="536.03553390593" y2="376.46446609407" style="stroke:#333;stroke-width:2;"/>
   <line x1="238" y1="300" x2="241.53553390593" y2="303.53553390593" style="stroke:#333;stroke-width:2;"/>
   <line x1="238" y1="300" x2="241.53553390593" y2="296.46446609407" style="stroke:#333;stroke-width:2;"/>
   <line x1="370" y1="280" x2="360" y2="280" style="stroke:#0bf;stroke-width:1;"/>
   <line x1="360" y1="120" x2="370" y2="120" style="stroke:#0bf;stroke-width:1;"/>
   <line x1="360" y1="280" x2="360" y2="120" style="stroke:#0bf;stroke-width:1;"/>
   <line x1="362.5" y1="280" x2="366.03553390593" y2="283.53553390593" style="stroke:#0bf;stroke-width:2;"/>
   <line x1="362.5" y1="280" x2="366.03553390593" y2="276.46446609407" style="stroke:#0bf;stroke-width:2;"/>
   <line x1="365" y1="120" x2="361.46446609407" y2="123.53553390593" style="stroke:#0bf;stroke-width:2;"/>
   <line x1="365" y1="120" x2="361.46446609407" y2="116.46446609407" style="stroke:#0bf;stroke-width:2;"/>
   <line x1="370" y1="260" x2="360" y2="260" style="stroke:#c00;stroke-width:1;"/>
   <line x1="243" y1="300" x2="233" y2="300" style="stroke:#c00;stroke-width:1;"/>
   <line x1="360" y1="260" x2="243" y2="300" style="stroke:#c00;stroke-width:1;"/>
   <line x1="362.5" y1="260" x2="366.03553390593" y2="263.53553390593" style="stroke:#c00;stroke-width:2;"/>
   <line x1="362.5" y1="260" x2="366.03553390593" y2="256.46446609407" style="stroke:#c00;stroke-width:2;"/>
   <line x1="238" y1="300" x2="241.53553390593" y2="303.53553390593" style="stroke:#c00;stroke-width:2;"/>
   <line x1="238" y1="300" x2="241.53553390593" y2="296.46446609407" style="stroke:#c00;stroke-width:2;"/>
   <line x1="370" y1="140" x2="360" y2="140" style="stroke:#c00;stroke-width:1;"/>
   <line x1="243" y1="300" x2="233" y2="300" style="stroke:#c00;stroke-width:1;"/>
   <line x1="360" y1="140" x2="243" y2="300" style="stroke:#c00;stroke-width:1;"/>
   <line x1="362.5" y1="140" x2="366.03553390593" y2="143.53553390593" style="stroke:#c00;stroke-width:2;"/>
   <line x1="362.5" y1="140" x2="366.03553390593" y2="136.46446609407" style="stroke:#c00;stroke-width:2;"/>
   <line x1="238" y1="300" x2="241.53553390593" y2="303.53553390593" style="stroke:#c00;stroke-width:2;"/>
   <line x1="238" y1="300" x2="241.53553390593" y2="296.46446609407" style="stroke:#c00;stroke-width:2;"/>
   <line x1="463" y1="120" x2="473" y2="120" style="stroke:#0bf;stroke-width:1;"/>
   <line x1="530" y1="400" x2="540" y2="400" style="stroke:#0bf;stroke-width:1;"/>
   <line x1="473" y1="120" x2="530" y2="400" style="stroke:#0bf;stroke-width:1;"/>
   <line x1="470.5" y1="120" x2="466.96446609407" y2="123.53553390593" style="stroke:#0bf;stroke-width:2;"/>
   <line x1="470.5" y1="120" x2="466.96446609407" y2="116.46446609407" style="stroke:#0bf;stroke-width:2;"/>
   <line x1="535" y1="400" x2="531.46446609407" y2="403.53553390593" style="stroke:#0bf;stroke-width:2;"/>
   <line x1="535" y1="400" x2="531.46446609407" y2="396.46446609407" style="stroke:#0bf;stroke-width:2;"/>
   <line x1="110" y1="480" x2="100" y2="480" style="stroke:#c00;stroke-width:1;"/>
   <line x1="130" y1="300" x2="140" y2="300" style="stroke:#c00;stroke-width:1;"/>
   <line x1="100" y1="480" x2="130" y2="300" style="stroke:#c00;stroke-width:1;"/>
   <line x1="102.5" y1="480" x2="106.03553390593" y2="483.53553390593" style="stroke:#c00;stroke-width:2;"/>
   <line x1="102.5" y1="480" x2="106.03553390593" y2="476.46446609407" style="stroke:#c00;stroke-width:2;"/>
   <line x1="135" y1="300" x2="131.46446609407" y2="303.53553390593" style="stroke:#c00;stroke-width:2;"/>
   <line x1="135" y1="300" x2="131.46446609407" y2="296.46446609407" style="stroke:#c00;stroke-width:2;"/>
   <line x1="540" y1="500" x2="530" y2="500" style="stroke:#0b0;stroke-width:1;"/>
   <line x1="243" y1="300" x2="233" y2="300" style="stroke:#0b0;stroke-width:1;"/>
   <line x1="530" y1="500" x2="243" y2="300" style="stroke:#0b0;stroke-width:1;"/>
   <line x1="532.5" y1="500" x2="536.03553390593" y2="503.53553390593" style="stroke:#0b0;stroke-width:2;"/>
   <line x1="532.5" y1="500" x2="536.03553390593" y2="496.46446609407" style="stroke:#0b0;stroke-width:2;"/>
   <line x1="238" y1="300" x2="241.53553390593" y2="303.53553390593" style="stroke:#0b0;stroke-width:2;"/>
   <line x1="238" y1="300" x2="241.53553390593" y2="296.46446609407" style="stroke:#0b0;stroke-width:2;"/>
   <line x1="540" y1="520" x2="530" y2="520" style="stroke:#b0b;stroke-width:1;"/>
   <line x1="530" y1="360" x2="540" y2="360" style="stroke:#b0b;stroke-width:1;"/>
   <line x1="530" y1="520" x2="530" y2="360" style="stroke:#b0b;stroke-width:1;"/>
   <line x1="532.5" y1="520" x2="536.03553390593" y2="523.53553390593" style="stroke:#b0b;stroke-width:2;"/>
   <line x1="532.5" y1="520" x2="536.03553390593" y2="516.46446609407" style="stroke:#b0b;stroke-width:2;"/>
   <line x1="535" y1="360" x2="531.46446609407" y2="363.53553390593" style="stroke:#b0b;stroke-width:2;"/>
   <line x1="535" y1="360" x2="531.46446609407" y2="356.46446609407" style="stroke:#b0b;stroke-width:2;"/>
   <rect width="93" height="20" x="540" y="330" style="fill:#007;stroke:black;"/>
   <text width="93" height="20" x="545" y="344" style="fill:#fff;" font-family="Arial" font-size="16px"> comment</text>
   <rect width="93" height="20" x="540" y="350" style="fill:#aea;stroke:black;"/>
   <text width="93" height="20" x="545" y="364" style="fill:black;" font-family="Arial" font-size="16px">id</text>
   <rect width="93" height="20" x="540" y="370" style="fill:none;stroke:black;"/>
   <text width="93" height="20" x="545" y="384" style="fill:black;" font-family="Arial" font-size="16px">id_user</text>
   <rect width="93" height="20" x="540" y="390" style="fill:none;stroke:black;"/>
   <text width="93" height="20" x="545" y="404" style="fill:black;" font-family="Arial" font-size="16px">id_photo</text>
   <rect width="93" height="20" x="540" y="410" style="fill:none;stroke:black;"/>
   <text width="93" height="20" x="545" y="424" style="fill:black;" font-family="Arial" font-size="16px">comment</text>
   <rect width="93" height="20" x="370" y="210" style="fill:#007;stroke:black;"/>
   <text width="93" height="20" x="375" y="224" style="fill:#fff;" font-family="Arial" font-size="16px"> like</text>
   <rect width="93" height="20" x="370" y="230" style="fill:#aea;stroke:black;"/>
   <text width="93" height="20" x="375" y="244" style="fill:black;" font-family="Arial" font-size="16px">id</text>
   <rect width="93" height="20" x="370" y="250" style="fill:none;stroke:black;"/>
   <text width="93" height="20" x="375" y="264" style="fill:black;" font-family="Arial" font-size="16px">id_user</text>
   <rect width="93" height="20" x="370" y="270" style="fill:none;stroke:black;"/>
   <text width="93" height="20" x="375" y="284" style="fill:black;" font-family="Arial" font-size="16px">id_photo</text>
   <rect width="93" height="20" x="370" y="90" style="fill:#007;stroke:black;"/>
   <text width="93" height="20" x="375" y="104" style="fill:#fff;" font-family="Arial" font-size="16px"> photo</text>
   <rect width="93" height="20" x="370" y="110" style="fill:none;stroke:black;"/>
   <text width="93" height="20" x="375" y="124" style="fill:black;" font-family="Arial" font-size="16px">id_photo</text>
   <rect width="93" height="20" x="370" y="130" style="fill:none;stroke:black;"/>
   <text width="93" height="20" x="375" y="144" style="fill:black;" font-family="Arial" font-size="16px">id_user</text>
   <rect width="93" height="20" x="370" y="150" style="fill:none;stroke:black;"/>
   <text width="93" height="20" x="375" y="164" style="fill:black;" font-family="Arial" font-size="16px">photo</text>
   <rect width="93" height="20" x="370" y="170" style="fill:none;stroke:black;"/>
   <text width="93" height="20" x="375" y="184" style="fill:black;" font-family="Arial" font-size="16px">description</text>
   <rect width="93" height="20" x="110" y="430" style="fill:#007;stroke:black;"/>
   <text width="93" height="20" x="115" y="444" style="fill:#fff;" font-family="Arial" font-size="16px"> profile</text>
   <rect width="93" height="20" x="110" y="450" style="fill:#aea;stroke:black;"/>
   <text width="93" height="20" x="115" y="464" style="fill:black;" font-family="Arial" font-size="16px">id</text>
   <rect width="93" height="20" x="110" y="470" style="fill:none;stroke:black;"/>
   <text width="93" height="20" x="115" y="484" style="fill:black;" font-family="Arial" font-size="16px">id_user</text>
   <rect width="93" height="20" x="110" y="490" style="fill:none;stroke:black;"/>
   <text width="93" height="20" x="115" y="504" style="fill:black;" font-family="Arial" font-size="16px">gender</text>
   <rect width="93" height="20" x="110" y="510" style="fill:none;stroke:black;"/>
   <text width="93" height="20" x="115" y="524" style="fill:black;" font-family="Arial" font-size="16px">company</text>
   <rect width="93" height="20" x="110" y="530" style="fill:none;stroke:black;"/>
   <text width="93" height="20" x="115" y="544" style="fill:black;" font-family="Arial" font-size="16px">phone</text>
   <rect width="93" height="20" x="540" y="450" style="fill:#007;stroke:black;"/>
   <text width="93" height="20" x="545" y="464" style="fill:#fff;" font-family="Arial" font-size="16px"> reply</text>
   <rect width="93" height="20" x="540" y="470" style="fill:#aea;stroke:black;"/>
   <text width="93" height="20" x="545" y="484" style="fill:black;" font-family="Arial" font-size="16px">id</text>
   <rect width="93" height="20" x="540" y="490" style="fill:none;stroke:black;"/>
   <text width="93" height="20" x="545" y="504" style="fill:black;" font-family="Arial" font-size="16px">id_user</text>
   <rect width="93" height="20" x="540" y="510" style="fill:none;stroke:black;"/>
   <text width="93" height="20" x="545" y="524" style="fill:black;" font-family="Arial" font-size="16px">id_comment</text>
   <rect width="93" height="20" x="540" y="530" style="fill:none;stroke:black;"/>
   <text width="93" height="20" x="545" y="544" style="fill:black;" font-family="Arial" font-size="16px">comment</text>
   <rect width="93" height="20" x="140" y="270" style="fill:#007;stroke:black;"/>
   <text width="93" height="20" x="145" y="284" style="fill:#fff;" font-family="Arial" font-size="16px"> users</text>
   <rect width="93" height="20" x="140" y="290" style="fill:none;stroke:black;"/>
   <text width="93" height="20" x="145" y="304" style="fill:black;" font-family="Arial" font-size="16px">id_user</text>
   <rect width="93" height="20" x="140" y="310" style="fill:none;stroke:black;"/>
   <text width="93" height="20" x="145" y="324" style="fill:black;" font-family="Arial" font-size="16px">username</text>
   <rect width="93" height="20" x="140" y="330" style="fill:none;stroke:black;"/>
   <text width="93" height="20" x="145" y="344" style="fill:black;" font-family="Arial" font-size="16px">email</text>
   <rect width="93" height="20" x="140" y="350" style="fill:none;stroke:black;"/>
   <text width="93" height="20" x="145" y="364" style="fill:black;" font-family="Arial" font-size="16px">password</text>
   <rect width="93" height="20" x="140" y="370" style="fill:none;stroke:black;"/>
   <text width="93" height="20" x="145" y="384" style="fill:black;" font-family="Arial" font-size="16px">token</text>
</svg>
